<svg id="Layer_2" data-name="Layer 2" xmlns="http://www.w3.org/2000/svg" viewBox="0 0 188.53 72.28"><defs><style>.cls-1{fill:#ff0;}.cls-2{fill:#00aaef;}.cls-3{fill:#ef00aa;}</style></defs><title>kodfit_logo_2</title><path d="M199.16,111.77c0-11,7.22-17.38,15.32-17.38s15.31,6.35,15.31,17.38-7.21,17.3-15.31,17.3S199.16,122.72,199.16,111.77Zm24.86,0c0-7.57-3.86-12.73-9.54-12.73s-9.54,5.16-9.54,12.73,3.86,12.65,9.54,12.65S224,119.35,224,111.77Z" transform="translate(-138.62 -56.79)"/><path d="M235.58,111.77c0-10.72,6.76-17.38,14.3-17.38,3.84,0,6.36,1.44,9.26,3.83l-.24-5.67V79.81h5.6v48.44h-4.62l-.48-3.9h-.18c-2.57,2.57-6.09,4.72-10,4.72C240.93,129.07,235.58,122.79,235.58,111.77Zm23.32,8.08V102.53c-2.82-2.51-5.36-3.44-8.06-3.44-5.28,0-9.49,5.1-9.49,12.63,0,7.93,3.28,12.65,9.08,12.65C253.48,124.37,256.13,122.88,258.9,119.85Z" transform="translate(-138.62 -56.79)"/><path d="M271.56,95.53l4.74-.33h12.34v4.56H271.56ZM276.05,90c0-6.71,3.05-11,9.68-11a14.64,14.64,0,0,1,5.49,1.14L290,84.41a9.08,9.08,0,0,0-3.75-.85c-3.12,0-4.65,2.18-4.65,6.44v38.25h-5.59Z" transform="translate(-138.62 -56.79)"/><path d="M294.44,95.2H300v33.05h-5.59Z" transform="translate(-138.62 -56.79)"/><path d="M311.6,118V99.76h-4.92V95.53l5.17-.33.67-9.26h4.67V95.2h9v4.56h-9v18.37c0,4,1.31,6.38,5.12,6.38a11.1,11.1,0,0,0,3.76-.88l1.08,4.22a19.89,19.89,0,0,1-6.13,1.22C314,129.07,311.6,124.61,311.6,118Z" transform="translate(-138.62 -56.79)"/><rect class="cls-1" x="155.66" y="26.96" width="5.94" height="5.94"/><polygon class="cls-2" points="45.28 0 35.4 0.68 0 72.17 9.87 71.49 45.28 0"/><polygon class="cls-3" points="59.57 41.53 61.96 36.94 54.64 31.83 31.66 33.02 26.72 41.87 36.26 65.7 43.74 71.32 46.64 66.89 36.94 42.55 59.57 41.53"/></svg>